<mxfile host="app.diagrams.net" modified="2021-06-28T00:16:27.873Z" agent="5.0 (X11)" etag="5iyd6GkCYL8WeOCoMaWt" version="14.8.1" type="github">
  <diagram id="oCPUS4oJqplixbIaSKUz" name="Page-1">
    <mxGraphModel dx="2026" dy="1126" grid="1" gridSize="10" guides="1" tooltips="1" connect="1" arrows="1" fold="1" page="1" pageScale="1" pageWidth="850" pageHeight="1100" math="0" shadow="0">
      <root>
        <mxCell id="0" />
        <mxCell id="1" parent="0" />
        <mxCell id="7fFSYUiusndM4oaUvXzI-5" value="favorites" style="swimlane;fontStyle=0;childLayout=stackLayout;horizontal=1;startSize=26;horizontalStack=0;resizeParent=1;resizeParentMax=0;resizeLast=0;collapsible=1;marginBottom=0;fontSize=18;" vertex="1" parent="1">
          <mxGeometry x="95" y="321" width="255" height="130" as="geometry" />
        </mxCell>
        <mxCell id="7fFSYUiusndM4oaUvXzI-6" value="id  PK               INT" style="text;strokeColor=none;fillColor=none;align=left;verticalAlign=top;spacingLeft=4;spacingRight=4;overflow=hidden;rotatable=0;points=[[0,0.5],[1,0.5]];portConstraint=eastwest;fontSize=18;" vertex="1" parent="7fFSYUiusndM4oaUvXzI-5">
          <mxGeometry y="26" width="255" height="26" as="geometry" />
        </mxCell>
        <mxCell id="7fFSYUiusndM4oaUvXzI-7" value="user_id             INT" style="text;strokeColor=none;fillColor=none;align=left;verticalAlign=top;spacingLeft=4;spacingRight=4;overflow=hidden;rotatable=0;points=[[0,0.5],[1,0.5]];portConstraint=eastwest;fontSize=18;" vertex="1" parent="7fFSYUiusndM4oaUvXzI-5">
          <mxGeometry y="52" width="255" height="26" as="geometry" />
        </mxCell>
        <mxCell id="7fFSYUiusndM4oaUvXzI-8" value="property_id      INT" style="text;strokeColor=none;fillColor=none;align=left;verticalAlign=top;spacingLeft=4;spacingRight=4;overflow=hidden;rotatable=0;points=[[0,0.5],[1,0.5]];portConstraint=eastwest;fontSize=18;" vertex="1" parent="7fFSYUiusndM4oaUvXzI-5">
          <mxGeometry y="78" width="255" height="26" as="geometry" />
        </mxCell>
        <mxCell id="7fFSYUiusndM4oaUvXzI-11" value="update_date     DATETIME" style="text;strokeColor=none;fillColor=none;align=left;verticalAlign=top;spacingLeft=4;spacingRight=4;overflow=hidden;rotatable=0;points=[[0,0.5],[1,0.5]];portConstraint=eastwest;fontSize=18;" vertex="1" parent="7fFSYUiusndM4oaUvXzI-5">
          <mxGeometry y="104" width="255" height="26" as="geometry" />
        </mxCell>
        <mxCell id="7fFSYUiusndM4oaUvXzI-12" value="auth_user" style="swimlane;fontStyle=0;childLayout=stackLayout;horizontal=1;startSize=26;horizontalStack=0;resizeParent=1;resizeParentMax=0;resizeLast=0;collapsible=1;marginBottom=0;fontSize=18;" vertex="1" parent="1">
          <mxGeometry x="515" y="181" width="265" height="134" as="geometry" />
        </mxCell>
        <mxCell id="7fFSYUiusndM4oaUvXzI-13" value="id  PK               INT" style="text;strokeColor=none;fillColor=none;align=left;verticalAlign=top;spacingLeft=4;spacingRight=4;overflow=hidden;rotatable=0;points=[[0,0.5],[1,0.5]];portConstraint=eastwest;fontSize=18;" vertex="1" parent="7fFSYUiusndM4oaUvXzI-12">
          <mxGeometry y="26" width="265" height="26" as="geometry" />
        </mxCell>
        <mxCell id="7fFSYUiusndM4oaUvXzI-14" value="password         VARCHAR" style="text;strokeColor=none;fillColor=none;align=left;verticalAlign=top;spacingLeft=4;spacingRight=4;overflow=hidden;rotatable=0;points=[[0,0.5],[1,0.5]];portConstraint=eastwest;fontSize=18;" vertex="1" parent="7fFSYUiusndM4oaUvXzI-12">
          <mxGeometry y="52" width="265" height="26" as="geometry" />
        </mxCell>
        <mxCell id="7fFSYUiusndM4oaUvXzI-15" value="..." style="text;strokeColor=none;fillColor=none;align=left;verticalAlign=top;spacingLeft=4;spacingRight=4;overflow=hidden;rotatable=0;points=[[0,0.5],[1,0.5]];portConstraint=eastwest;fontSize=18;" vertex="1" parent="7fFSYUiusndM4oaUvXzI-12">
          <mxGeometry y="78" width="265" height="26" as="geometry" />
        </mxCell>
        <mxCell id="7fFSYUiusndM4oaUvXzI-17" value="date_joined      DATETIME" style="text;strokeColor=none;fillColor=none;align=left;verticalAlign=top;spacingLeft=4;spacingRight=4;overflow=hidden;rotatable=0;points=[[0,0.5],[1,0.5]];portConstraint=eastwest;fontSize=18;" vertex="1" parent="7fFSYUiusndM4oaUvXzI-12">
          <mxGeometry y="104" width="265" height="30" as="geometry" />
        </mxCell>
        <mxCell id="7fFSYUiusndM4oaUvXzI-18" value="property" style="swimlane;fontStyle=0;childLayout=stackLayout;horizontal=1;startSize=26;horizontalStack=0;resizeParent=1;resizeParentMax=0;resizeLast=0;collapsible=1;marginBottom=0;fontSize=18;" vertex="1" parent="1">
          <mxGeometry x="515" y="391" width="265" height="160" as="geometry" />
        </mxCell>
        <mxCell id="7fFSYUiusndM4oaUvXzI-19" value="id  PK               INT" style="text;strokeColor=none;fillColor=none;align=left;verticalAlign=top;spacingLeft=4;spacingRight=4;overflow=hidden;rotatable=0;points=[[0,0.5],[1,0.5]];portConstraint=eastwest;fontSize=18;" vertex="1" parent="7fFSYUiusndM4oaUvXzI-18">
          <mxGeometry y="26" width="265" height="26" as="geometry" />
        </mxCell>
        <mxCell id="7fFSYUiusndM4oaUvXzI-20" value="address            VARCHAR" style="text;strokeColor=none;fillColor=none;align=left;verticalAlign=top;spacingLeft=4;spacingRight=4;overflow=hidden;rotatable=0;points=[[0,0.5],[1,0.5]];portConstraint=eastwest;fontSize=18;" vertex="1" parent="7fFSYUiusndM4oaUvXzI-18">
          <mxGeometry y="52" width="265" height="26" as="geometry" />
        </mxCell>
        <mxCell id="7fFSYUiusndM4oaUvXzI-21" value="city                   VARCHAR" style="text;strokeColor=none;fillColor=none;align=left;verticalAlign=top;spacingLeft=4;spacingRight=4;overflow=hidden;rotatable=0;points=[[0,0.5],[1,0.5]];portConstraint=eastwest;fontSize=18;" vertex="1" parent="7fFSYUiusndM4oaUvXzI-18">
          <mxGeometry y="78" width="265" height="26" as="geometry" />
        </mxCell>
        <mxCell id="7fFSYUiusndM4oaUvXzI-22" value="..." style="text;strokeColor=none;fillColor=none;align=left;verticalAlign=top;spacingLeft=4;spacingRight=4;overflow=hidden;rotatable=0;points=[[0,0.5],[1,0.5]];portConstraint=eastwest;fontSize=18;" vertex="1" parent="7fFSYUiusndM4oaUvXzI-18">
          <mxGeometry y="104" width="265" height="26" as="geometry" />
        </mxCell>
        <mxCell id="7fFSYUiusndM4oaUvXzI-23" value="year                 INT" style="text;strokeColor=none;fillColor=none;align=left;verticalAlign=top;spacingLeft=4;spacingRight=4;overflow=hidden;rotatable=0;points=[[0,0.5],[1,0.5]];portConstraint=eastwest;fontSize=18;" vertex="1" parent="7fFSYUiusndM4oaUvXzI-18">
          <mxGeometry y="130" width="265" height="30" as="geometry" />
        </mxCell>
        <mxCell id="7fFSYUiusndM4oaUvXzI-24" value="" style="edgeStyle=entityRelationEdgeStyle;fontSize=18;html=1;endArrow=ERmany;entryX=0;entryY=0.5;entryDx=0;entryDy=0;exitX=1;exitY=0.269;exitDx=0;exitDy=0;exitPerimeter=0;strokeWidth=1;endSize=16;" edge="1" parent="1" source="7fFSYUiusndM4oaUvXzI-7" target="7fFSYUiusndM4oaUvXzI-14">
          <mxGeometry width="100" height="100" relative="1" as="geometry">
            <mxPoint x="285" y="581" as="sourcePoint" />
            <mxPoint x="385" y="481" as="targetPoint" />
          </mxGeometry>
        </mxCell>
        <mxCell id="7fFSYUiusndM4oaUvXzI-25" value="" style="edgeStyle=entityRelationEdgeStyle;fontSize=18;html=1;endArrow=ERmany;entryX=0;entryY=0.5;entryDx=0;entryDy=0;exitX=1;exitY=0.5;exitDx=0;exitDy=0;endSize=16;" edge="1" parent="1" source="7fFSYUiusndM4oaUvXzI-8" target="7fFSYUiusndM4oaUvXzI-20">
          <mxGeometry width="100" height="100" relative="1" as="geometry">
            <mxPoint x="285" y="389.9939999999999" as="sourcePoint" />
            <mxPoint x="525" y="256" as="targetPoint" />
          </mxGeometry>
        </mxCell>
        <mxCell id="7fFSYUiusndM4oaUvXzI-26" value="&lt;font style=&quot;font-size: 45px&quot;&gt;&amp;nbsp;&lt;font style=&quot;font-size: 45px&quot;&gt;Entity Relationship Model&lt;/font&gt;&lt;/font&gt;" style="text;html=1;strokeColor=none;fillColor=none;align=center;verticalAlign=middle;whiteSpace=wrap;rounded=0;" vertex="1" parent="1">
          <mxGeometry x="90" y="30" width="640" height="60" as="geometry" />
        </mxCell>
        <mxCell id="7fFSYUiusndM4oaUvXzI-28" value="&lt;font style=&quot;font-size: 24px&quot;&gt;Properties favorites with owner&lt;/font&gt;" style="text;html=1;strokeColor=none;fillColor=none;align=center;verticalAlign=middle;whiteSpace=wrap;rounded=0;" vertex="1" parent="1">
          <mxGeometry x="209.38" y="90" width="401.25" height="50" as="geometry" />
        </mxCell>
      </root>
    </mxGraphModel>
  </diagram>
</mxfile>
